<svg width="30" height="30" viewBox="0 0 30 30" fill="none" xmlns="http://www.w3.org/2000/svg">
<g clip-path="url(#clip0)">
<path d="M15.0067 7.29911C10.7478 7.29911 7.31251 10.7344 7.31251 14.9933C7.31251 19.2522 10.7478 22.6875 15.0067 22.6875C19.2656 22.6875 22.7009 19.2522 22.7009 14.9933C22.7009 10.7344 19.2656 7.29911 15.0067 7.29911ZM15.0067 19.9955C12.2545 19.9955 10.0045 17.7522 10.0045 14.9933C10.0045 12.2344 12.2478 9.99107 15.0067 9.99107C17.7656 9.99107 20.0089 12.2344 20.0089 14.9933C20.0089 17.7522 17.7589 19.9955 15.0067 19.9955V19.9955ZM24.8103 6.98437C24.8103 7.98214 24.0067 8.77902 23.0156 8.77902C22.0179 8.77902 21.221 7.97545 21.221 6.98437C21.221 5.9933 22.0246 5.18973 23.0156 5.18973C24.0067 5.18973 24.8103 5.9933 24.8103 6.98437ZM29.9062 8.8058C29.7924 6.40179 29.2433 4.27232 27.4821 2.51786C25.7277 0.763393 23.5982 0.214286 21.1942 0.09375C18.7165 -0.046875 11.2902 -0.046875 8.81251 0.09375C6.41519 0.207589 4.28573 0.756696 2.52457 2.51116C0.76341 4.26562 0.220999 6.39509 0.100464 8.79911C-0.0401611 11.2768 -0.0401611 18.7031 0.100464 21.1808C0.214303 23.5848 0.76341 25.7143 2.52457 27.4687C4.28573 29.2232 6.40849 29.7723 8.81251 29.8929C11.2902 30.0335 18.7165 30.0335 21.1942 29.8929C23.5982 29.779 25.7277 29.2299 27.4821 27.4687C29.2366 25.7143 29.7857 23.5848 29.9062 21.1808C30.0469 18.7031 30.0469 11.2835 29.9062 8.8058V8.8058ZM26.7053 23.8393C26.183 25.1518 25.1719 26.1629 23.8527 26.692C21.8772 27.4754 17.1897 27.2946 15.0067 27.2946C12.8237 27.2946 8.12947 27.4687 6.16073 26.692C4.84823 26.1696 3.83707 25.1585 3.30805 23.8393C2.52457 21.8638 2.70537 17.1763 2.70537 14.9933C2.70537 12.8103 2.53127 8.11607 3.30805 6.14732C3.83037 4.83482 4.84153 3.82366 6.16073 3.29464C8.13617 2.51116 12.8237 2.69196 15.0067 2.69196C17.1897 2.69196 21.8839 2.51786 23.8527 3.29464C25.1652 3.81696 26.1763 4.82812 26.7053 6.14732C27.4888 8.12277 27.308 12.8103 27.308 14.9933C27.308 17.1763 27.4888 21.8705 26.7053 23.8393Z" fill="#C67B7E"/>
</g>
<defs>
<clipPath id="clip0">
<rect width="30" height="30" fill="white"/>
</clipPath>
</defs>
</svg>
